<?xml version="1.0" standalone="no"?>
<!DOCTYPE svg PUBLIC "-//W3C//DTD SVG 20010904//EN"
 "http://www.w3.org/TR/2001/REC-SVG-20010904/DTD/svg10.dtd">
<svg version="1.0" xmlns="http://www.w3.org/2000/svg"
 width="1102.000000pt" height="1102.000000pt" viewBox="0 0 1102.000000 1102.000000"
 preserveAspectRatio="xMidYMid meet">
<metadata>
Created by potrace 1.14, written by Peter Selinger 2001-2017
</metadata>
<g transform="translate(0.000000,1102.000000) scale(0.100000,-0.100000)"
fill="#000000" stroke="none">
<path d="M4697 11005 c-26 -7 -50 -12 -53 -13 -116 -17 -491 -132 -774 -238
-539 -201 -813 -341 -1132 -576 -510 -376 -908 -876 -1130 -1418 -91 -222
-163 -476 -183 -650 -3 -25 -8 -52 -10 -60 -13 -51 -20 -174 -20 -380 0 -229
5 -307 26 -440 6 -36 12 -76 14 -90 2 -14 11 -56 20 -95 9 -38 19 -81 21 -95
3 -14 16 -63 30 -110 14 -47 27 -89 28 -95 2 -5 6 -17 9 -25 3 -8 20 -55 38
-105 17 -49 41 -110 52 -135 175 -394 357 -662 641 -945 168 -167 193 -189
316 -286 334 -263 769 -515 1295 -749 28 -12 73 -33 100 -45 28 -13 66 -30 85
-38 446 -194 896 -400 1175 -538 233 -115 326 -165 522 -283 50 -30 280 -186
311 -210 397 -318 609 -562 770 -886 91 -185 141 -347 188 -610 10 -58 12
-381 3 -450 -11 -83 -17 -119 -24 -150 -4 -14 -8 -38 -11 -55 -21 -121 -120
-371 -199 -500 -36 -58 -88 -138 -95 -145 -3 -3 -27 -32 -54 -65 -80 -98 -214
-223 -332 -312 -62 -45 -114 -90 -118 -99 -10 -25 -6 -58 8 -76 15 -20 61 -39
78 -33 7 2 25 6 40 9 15 3 67 14 115 27 48 12 92 22 98 24 5 1 30 8 55 15 25
7 50 14 55 15 33 7 302 96 425 140 255 93 467 181 685 284 114 55 386 216 393
233 2 4 8 8 13 8 19 0 260 186 384 296 570 506 952 1182 1050 1859 4 22 8 51
11 65 29 166 22 639 -12 812 -2 13 -7 43 -10 68 -3 25 -8 48 -10 51 -2 3 -6
21 -9 40 -3 19 -8 42 -11 51 -3 9 -6 25 -8 35 -23 116 -111 379 -166 500 -11
24 -20 45 -20 48 0 11 -107 221 -150 295 -287 492 -707 890 -1315 1248 -286
168 -526 286 -1085 532 -386 171 -479 213 -684 309 -47 23 -88 41 -90 41 -13
0 -465 226 -571 285 -713 400 -1112 804 -1352 1370 -23 55 -90 264 -98 305 -3
14 -9 48 -15 75 -31 160 -42 329 -28 480 12 147 20 192 58 345 17 67 88 245
133 330 130 248 347 487 594 654 51 34 66 70 48 113 -17 41 -56 54 -118 38z"/>
<path d="M5720 10629 c-304 -30 -551 -130 -745 -299 -54 -47 -145 -140 -172
-176 -13 -16 -36 -47 -53 -68 -17 -22 -52 -78 -79 -125 -132 -231 -192 -461
-185 -709 11 -371 199 -711 527 -956 162 -120 426 -268 722 -403 50 -23 133
-62 186 -86 122 -58 425 -187 854 -367 187 -78 360 -151 385 -162 25 -12 79
-35 120 -53 267 -116 737 -345 842 -411 21 -13 40 -24 42 -24 4 0 109 -63 309
-185 66 -40 260 -177 334 -235 324 -256 575 -540 768 -870 256 -438 403 -903
441 -1403 13 -156 5 -530 -11 -580 -2 -7 -6 -36 -10 -66 -3 -30 -8 -65 -11
-78 -22 -86 99 -136 148 -61 8 12 41 84 73 158 31 74 63 149 70 165 83 191
210 618 259 865 2 14 9 48 15 75 5 28 12 68 15 90 4 23 8 50 10 60 9 49 17
111 31 235 4 30 8 69 10 85 25 200 25 782 0 960 -8 60 -17 140 -17 155 0 8 -4
35 -8 60 -5 25 -12 72 -15 105 -4 33 -9 63 -11 66 -3 5 -7 29 -30 164 -3 17
-19 84 -35 150 -16 66 -32 130 -35 143 -18 85 -127 415 -189 572 -194 493
-498 1003 -835 1400 -229 271 -577 601 -835 792 -5 4 -24 19 -41 32 -58 47
-345 236 -462 305 -300 176 -651 335 -977 442 -163 54 -461 139 -538 155 -10
2 -26 5 -35 8 -9 3 -28 7 -42 10 -14 2 -74 13 -135 25 -60 11 -135 23 -165 26
-30 3 -68 8 -85 11 -45 9 -331 11 -405 3z"/>
<path d="M913 7768 c-35 -38 -156 -321 -234 -546 -59 -172 -129 -411 -131
-449 0 -5 -4 -18 -9 -31 -5 -12 -11 -33 -13 -45 -3 -12 -7 -33 -10 -47 -20
-92 -29 -138 -31 -156 -2 -11 -8 -45 -14 -75 -12 -59 -16 -86 -26 -169 -4 -30
-9 -63 -10 -72 -2 -9 -7 -48 -10 -85 -4 -37 -8 -78 -10 -90 -23 -146 -23 -767
0 -923 2 -14 7 -59 10 -100 4 -41 9 -84 11 -95 2 -11 6 -38 9 -60 9 -83 57
-350 76 -419 6 -23 12 -48 14 -56 18 -88 134 -482 162 -550 3 -8 7 -19 9 -25
9 -33 93 -237 146 -354 83 -182 195 -399 240 -463 10 -14 18 -29 18 -31 0 -13
223 -356 259 -399 6 -7 42 -54 81 -105 592 -778 1435 -1390 2370 -1720 203
-72 621 -189 740 -208 19 -3 42 -8 50 -10 8 -2 31 -7 50 -10 19 -3 49 -8 65
-11 41 -8 69 -11 145 -19 36 -4 79 -9 95 -11 39 -6 302 -5 335 0 14 2 52 7 85
11 136 15 315 69 430 128 175 91 378 274 488 439 259 389 315 844 150 1221
-132 303 -373 537 -766 746 -43 23 -86 46 -95 51 -92 52 -569 270 -862 395
-113 48 -218 93 -235 100 -16 7 -86 36 -155 65 -213 89 -592 251 -647 276 -95
43 -157 71 -208 94 -60 27 -459 227 -532 267 -322 176 -603 362 -813 537 -85
71 -302 282 -375 366 -64 73 -201 256 -240 322 -5 9 -38 63 -71 120 -215 360
-352 753 -419 1198 -4 24 -13 116 -21 204 -5 53 -4 410 1 456 2 19 6 60 9 92
3 31 10 86 16 122 6 36 8 77 4 91 -14 55 -93 74 -131 33z"/>
</g>
</svg>
