<?xml version="1.0" encoding="UTF-8"?><svg id="Layer_2" xmlns="http://www.w3.org/2000/svg" viewBox="0 0 616.31 471.16"><defs><style>.cls-1{letter-spacing:-.02em;}.cls-2{fill:#f4c55c;}.cls-3,.cls-4{fill:#00af9a;}.cls-5{fill:#ff9015;}.cls-6{letter-spacing:.04em;}.cls-7{letter-spacing:.02em;}.cls-8{letter-spacing:-.02em;}.cls-9{fill:#035c67;font-family:Raleway-ExtraLight, Raleway;font-size:110.7px;}.cls-4{font-family:Copperplate-Bold, Copperplate;font-size:49.94px;}.cls-10{letter-spacing:.06em;}.cls-11{letter-spacing:.02em;}.cls-12{letter-spacing:.02em;}</style></defs><g id="logos"><g id="dark-full-logo"><g><path class="cls-2" d="M283.31,31.61c-2.28,5.44-3.17,11.26-2.57,16.71,.57,5.5,2.64,10.38,5.83,14.79,6.44,8.95,17.87,14.16,29.33,19.48,24.95,11.58,50.8,19.64,73.55,35.6,6,4.21,11.63,9.25,16.51,15.01,4.86,5.86,8.68,12.23,11.71,18.93,6.11,13.37,8.41,28.24,6.95,42.51-.17,1.58-.39,3.14-.66,4.7-.42,2.38,2.88,3.46,3.93,1.28,8.36-17.44,13.05-36.98,13.05-57.62,0-28.74-9.4-57.06-26.66-80.06-16.95-22.57-40.99-39.5-68-47.7-16.46-5-37.48-9.95-52.15,1.95-4.86,3.94-8.52,9-10.8,14.43Z"/><path class="cls-3" d="M414.89,199.66c-.02-8.78-1.6-17.83-4.94-26.95-11.31-30.91-36.93-45.36-65.47-57.82-6.17-2.69-12.68-5.57-18.68-8.38-6.18-2.82-12.57-5.71-18.89-9.23-6.35-3.44-12.64-7.5-18.58-12.52-19.33-16.32-28.33-43.94-14.24-66.6,.73-1.18,1.52-2.29,2.34-3.38,3.28-4.25,7.32-7.97,11.97-11.02,1.88-1.23,.73-4.16-1.47-3.72-15.39,3.09-35.74,11.67-42.29,15.44-35.34,20.37-54.45,59.21-39.95,98.83,11.31,30.91,36.93,45.36,65.47,57.82,6.17,2.69,12.68,5.57,18.68,8.38,6.18,2.82,12.57,5.71,18.89,9.23,6.35,3.44,12.64,7.5,18.58,12.52,5.9,5.01,11.46,11.2,15.42,18.74,7.82,14.93,7.79,33.43-1.17,47.86-.67,1.08-1.38,2.11-2.13,3.12-.4,.53-.83,1.04-1.26,1.56-.17,.2-.33,.41-.5,.61-2.98,3.46-6.49,6.53-10.43,9.12-1.88,1.23-.73,4.16,1.47,3.72,15.39-3.09,35.74-11.67,42.29-15.44,27.38-15.78,44.97-42.29,44.89-71.88Z"/><path class="cls-5" d="M331.5,254.19c2.28-5.44,3.17-11.26,2.57-16.71-.57-5.5-2.64-10.38-5.83-14.79-6.44-8.95-17.87-14.16-29.33-19.48-24.95-11.58-50.8-19.64-73.55-35.6-6-4.21-11.63-9.25-16.51-15.01-4.86-5.86-8.68-12.23-11.71-18.93-6.11-13.37-8.41-28.24-6.95-42.51,.17-1.58,.39-3.14,.66-4.7,.42-2.38-2.88-3.46-3.93-1.28-8.36,17.44-13.05,36.98-13.05,57.62,0,28.74,9.4,57.06,26.66,80.06,16.95,22.57,40.99,39.5,68,47.7,16.46,5,37.48,9.95,52.15-1.95,4.86-3.94,8.52-9,10.8-14.43Z"/></g><text class="cls-9" transform="translate(0 400.03)"><tspan class="cls-11" x="0" y="0">S</tspan><tspan class="cls-1" x="68.96" y="0">o</tspan><tspan class="cls-11" x="131.95" y="0">p</tspan><tspan class="cls-10" x="201.36" y="0">r</tspan><tspan class="cls-7" x="244.64" y="0">i</tspan><tspan x="268.66" y="0">s </tspan><tspan class="cls-11" x="350.02" y="0">So</tspan><tspan class="cls-6" x="486.4" y="0">l</tspan><tspan class="cls-12" x="518.27" y="0">a</tspan><tspan class="cls-8" x="579.16" y="0">r</tspan></text><text class="cls-4" transform="translate(4.53 456.78)"><tspan x="0" y="0">Energy For The Future</tspan></text></g></g></svg>