<?xml version="1.0" encoding="UTF-8"?><svg id="Layer_2" xmlns="http://www.w3.org/2000/svg" viewBox="0 0 301.62 70.54"><defs><style>.cls-1{letter-spacing:-.02em;}.cls-2{fill:#f4c55c;}.cls-3,.cls-4{fill:#00af9a;}.cls-5{fill:#ff9015;}.cls-6{letter-spacing:.02em;}.cls-7{letter-spacing:.04em;}.cls-8{letter-spacing:-.02em;}.cls-9{letter-spacing:.06em;}.cls-10{letter-spacing:.02em;}.cls-4{font-family:Copperplate-Bold, Copperplate;font-size:17.28px;}.cls-11{fill:#eaeaea;font-family:Raleway-ExtraLight, Raleway;font-size:41.38px;}</style></defs><g id="logos"><g id="full-logo-horizontal-light"><g><path class="cls-2" d="M26.89,7.77c-.56,1.34-.78,2.77-.63,4.11,.14,1.35,.65,2.55,1.43,3.63,1.58,2.2,4.39,3.48,7.21,4.79,6.13,2.85,12.48,4.83,18.07,8.75,1.47,1.03,2.86,2.27,4.06,3.69,1.19,1.44,2.13,3.01,2.88,4.65,1.5,3.29,2.07,6.94,1.71,10.45-.04,.39-.09,.77-.16,1.15-.1,.59,.71,.85,.97,.31,2.05-4.29,3.21-9.09,3.21-14.16,0-7.06-2.31-14.02-6.55-19.67-4.16-5.55-10.07-9.71-16.71-11.72-4.05-1.23-9.21-2.44-12.82,.48-1.19,.97-2.09,2.21-2.65,3.55Z"/><path class="cls-3" d="M59.22,49.07c0-2.16-.39-4.38-1.21-6.62-2.78-7.6-9.07-11.15-16.09-14.21-1.52-.66-3.12-1.37-4.59-2.06-1.52-.69-3.09-1.4-4.64-2.27-1.56-.85-3.11-1.84-4.57-3.08-4.75-4.01-6.96-10.8-3.5-16.37,.18-.29,.37-.56,.58-.83,.81-1.04,1.8-1.96,2.94-2.71,.46-.3,.18-1.02-.36-.91-3.78,.76-8.78,2.87-10.39,3.79C8.7,8.81,4,18.36,7.57,28.09c2.78,7.6,9.07,11.15,16.09,14.21,1.52,.66,3.12,1.37,4.59,2.06,1.52,.69,3.09,1.4,4.64,2.27,1.56,.85,3.11,1.84,4.57,3.08,1.45,1.23,2.82,2.75,3.79,4.61,1.92,3.67,1.92,8.22-.29,11.76-.16,.26-.34,.52-.52,.77-.1,.13-.2,.26-.31,.38-.04,.05-.08,.1-.12,.15-.73,.85-1.59,1.61-2.56,2.24-.46,.3-.18,1.02,.36,.91,3.78-.76,8.78-2.87,10.39-3.79,6.73-3.88,11.05-10.39,11.03-17.67Z"/><path class="cls-5" d="M38.73,62.47c.56-1.34,.78-2.77,.63-4.11-.14-1.35-.65-2.55-1.43-3.63-1.58-2.2-4.39-3.48-7.21-4.79-6.13-2.85-12.48-4.83-18.07-8.75-1.47-1.03-2.86-2.27-4.06-3.69-1.19-1.44-2.13-3.01-2.88-4.65-1.5-3.29-2.07-6.94-1.71-10.45,.04-.39,.09-.77,.16-1.15,.1-.59-.71-.85-.97-.31C1.15,25.22,0,30.02,0,35.1c0,7.06,2.31,14.02,6.55,19.67s10.07,9.71,16.71,11.72c4.05,1.23,9.21,2.44,12.82-.48,1.19-.97,2.09-2.21,2.65-3.55Z"/></g><text class="cls-11" transform="translate(72.11 41.27)"><tspan class="cls-10" x="0" y="0">S</tspan><tspan class="cls-1" x="25.78" y="0">o</tspan><tspan class="cls-6" x="49.33" y="0">p</tspan><tspan class="cls-9" x="75.28" y="0">r</tspan><tspan class="cls-10" x="91.46" y="0">i</tspan><tspan x="100.44" y="0">s </tspan><tspan class="cls-10" x="130.85" y="0">So</tspan><tspan class="cls-7" x="181.83" y="0">l</tspan><tspan class="cls-6" x="193.75" y="0">a</tspan><tspan class="cls-8" x="216.51" y="0">r</tspan></text><text class="cls-4" transform="translate(73.84 59.52) scale(1.06 1)"><tspan x="0" y="0">Energy For The Future</tspan></text></g></g></svg>