<?xml version="1.0" encoding="UTF-8"?><svg id="Layer_2" xmlns="http://www.w3.org/2000/svg" viewBox="0 0 252.92 53.75"><defs><style>.cls-1{fill:#035c67;font-family:Raleway-ExtraLight, Raleway;font-size:35.11px;}.cls-2{fill:#f4c55c;}.cls-3{fill:#00af9a;}.cls-4{fill:#ff9015;}.cls-5{letter-spacing:.04em;}.cls-6{letter-spacing:.02em;}.cls-7{letter-spacing:-.02em;}.cls-8{letter-spacing:0em;}.cls-9{letter-spacing:.06em;}.cls-10{letter-spacing:.02em;}</style></defs><g id="logos"><g id="dark-name-logo"><text class="cls-1" transform="translate(56.77 37.83)"><tspan class="cls-10" x="0" y="0">S</tspan><tspan x="21.88" y="0">o</tspan><tspan class="cls-6" x="42.56" y="0">p</tspan><tspan class="cls-9" x="64.57" y="0">r</tspan><tspan class="cls-5" x="78.3" y="0">i</tspan><tspan class="cls-8" x="86.63" y="0">s </tspan><tspan class="cls-6" x="112.43" y="0">So</tspan><tspan class="cls-5" x="155.69" y="0">l</tspan><tspan class="cls-10" x="165.81" y="0">a</tspan><tspan class="cls-7" x="185.12" y="0">r</tspan></text><g><path class="cls-2" d="M20.49,5.92c-.43,1.02-.59,2.11-.48,3.13,.11,1.03,.49,1.94,1.09,2.77,1.21,1.68,3.35,2.65,5.49,3.65,4.67,2.17,9.51,3.68,13.77,6.67,1.12,.79,2.18,1.73,3.09,2.81,.91,1.1,1.62,2.29,2.19,3.54,1.14,2.5,1.58,5.29,1.3,7.96-.03,.3-.07,.59-.12,.88-.08,.45,.54,.65,.74,.24,1.57-3.27,2.44-6.92,2.44-10.79,0-5.38-1.76-10.68-4.99-14.99s-7.67-7.4-12.73-8.93c-3.08-.94-7.02-1.86-9.76,.36-.91,.74-1.59,1.68-2.02,2.7Z"/><path class="cls-3" d="M45.13,37.39c0-1.64-.3-3.34-.92-5.05-2.12-5.79-6.91-8.49-12.26-10.83-1.16-.5-2.37-1.04-3.5-1.57-1.16-.53-2.35-1.07-3.54-1.73-1.19-.65-2.37-1.4-3.48-2.34-3.62-3.06-5.31-8.23-2.67-12.47,.14-.22,.28-.43,.44-.63,.61-.8,1.37-1.49,2.24-2.06,.35-.23,.14-.78-.28-.7-2.88,.58-6.69,2.18-7.92,2.89C6.63,6.71,3.05,13.99,5.77,21.41c2.12,5.79,6.91,8.49,12.26,10.83,1.16,.5,2.37,1.04,3.5,1.57,1.16,.53,2.35,1.07,3.54,1.73,1.19,.65,2.37,1.4,3.48,2.34,1.11,.94,2.15,2.1,2.89,3.51,1.46,2.8,1.46,6.26-.22,8.96-.12,.2-.26,.4-.4,.58-.08,.1-.16,.2-.24,.29-.03,.04-.06,.08-.09,.11-.56,.65-1.21,1.22-1.95,1.71-.35,.23-.14,.78,.28,.7,2.88-.58,6.69-2.18,7.92-2.89,5.13-2.96,8.42-7.92,8.4-13.46Z"/><path class="cls-4" d="M29.51,47.6c.43-1.02,.59-2.11,.48-3.13-.11-1.03-.49-1.94-1.09-2.77-1.21-1.68-3.35-2.65-5.49-3.65-4.67-2.17-9.51-3.68-13.77-6.67-1.12-.79-2.18-1.73-3.09-2.81-.91-1.1-1.62-2.29-2.19-3.54-1.14-2.5-1.58-5.29-1.3-7.96,.03-.3,.07-.59,.12-.88,.08-.45-.54-.65-.74-.24C.88,19.22,0,22.88,0,26.74c0,5.38,1.76,10.68,4.99,14.99,3.17,4.23,7.67,7.4,12.73,8.93,3.08,.94,7.02,1.86,9.76-.36,.91-.74,1.59-1.68,2.02-2.7Z"/></g></g></g></svg>