<?xml version="1.0" encoding="UTF-8"?><svg id="Layer_2" xmlns="http://www.w3.org/2000/svg" viewBox="0 0 256 275.18"><defs><style>.cls-1{fill:#f4c55c;}.cls-2{fill:#00af9a;}.cls-3{fill:#ff9015;}</style></defs><g id="logos"><g id="img-only"><g id="_56"><path class="cls-1" d="M104.9,30.31c-2.18,5.21-3.04,10.8-2.46,16.02,.55,5.28,2.53,9.95,5.59,14.18,6.18,8.58,17.13,13.58,28.12,18.68,23.92,11.11,48.71,18.83,70.51,34.13,5.75,4.04,11.15,8.87,15.82,14.39,4.66,5.62,8.32,11.72,11.22,18.15,5.86,12.82,8.06,27.08,6.66,40.75-.16,1.51-.37,3.01-.63,4.51-.4,2.28,2.76,3.32,3.77,1.23,8.02-16.72,12.51-35.46,12.51-55.24,0-27.56-9.01-54.71-25.56-76.75-16.25-21.64-39.29-37.86-65.19-45.73-15.78-4.79-35.93-9.53-50,1.87-4.66,3.78-8.17,8.63-10.35,13.84Z"/><path class="cls-2" d="M231.04,191.42c-.02-8.42-1.54-17.09-4.74-25.84-10.84-29.63-35.4-43.49-62.77-55.44-5.92-2.58-12.16-5.34-17.91-8.04-5.93-2.71-12.05-5.48-18.11-8.84-6.08-3.3-12.12-7.19-17.82-12-18.53-15.65-27.16-42.12-13.65-63.85,.7-1.13,1.46-2.2,2.24-3.24,3.15-4.07,7.02-7.64,11.48-10.57,1.81-1.18,.7-3.99-1.41-3.57-14.75,2.97-34.27,11.18-40.54,14.8C33.94,34.38,15.62,71.61,29.52,109.6c10.84,29.63,35.4,43.49,62.77,55.44,5.92,2.58,12.16,5.34,17.91,8.04,5.93,2.71,12.05,5.48,18.11,8.84,6.08,3.3,12.12,7.19,17.82,12,5.66,4.8,10.99,10.73,14.78,17.97,7.5,14.31,7.47,32.05-1.13,45.88-.64,1.03-1.32,2.03-2.04,2.99-.39,.51-.8,1-1.21,1.49-.16,.2-.32,.39-.48,.59-2.85,3.32-6.22,6.26-10,8.74-1.81,1.18-.7,3.99,1.41,3.57,14.75-2.97,34.27-11.18,40.54-14.8,26.25-15.13,43.11-40.54,43.03-68.92Z"/><path class="cls-3" d="M151.1,243.69c2.18-5.21,3.04-10.8,2.46-16.02-.55-5.28-2.53-9.95-5.59-14.18-6.18-8.58-17.13-13.58-28.12-18.68-23.92-11.11-48.71-18.83-70.51-34.13-5.75-4.04-11.15-8.87-15.82-14.39-4.66-5.62-8.32-11.72-11.22-18.15-5.86-12.82-8.06-27.08-6.66-40.75,.16-1.51,.37-3.01,.63-4.51,.4-2.28-2.76-3.32-3.77-1.23C4.49,98.39,0,117.13,0,136.91c0,27.56,9.01,54.71,25.56,76.75,16.25,21.64,39.29,37.86,65.19,45.73,15.78,4.79,35.93,9.53,50-1.87,4.66-3.78,8.17-8.63,10.35-13.84Z"/></g></g></g></svg>